<?xml version="1.0" standalone="no"?>
<!DOCTYPE svg PUBLIC "-//W3C//DTD SVG 20010904//EN"
 "http://www.w3.org/TR/2001/REC-SVG-20010904/DTD/svg10.dtd">
<svg version="1.0" xmlns="http://www.w3.org/2000/svg"
 width="16.000000pt" height="16.000000pt" viewBox="0 0 16.000000 16.000000"
 preserveAspectRatio="xMidYMid meet">
<metadata>
Created by potrace 1.11, written by Peter Selinger 2001-2013
</metadata>
<g transform="translate(0.000000,16.000000) scale(0.003819,-0.003819)"
fill="#000000" stroke="none">
<path d="M405 2606 c-161 -39 -328 -208 -371 -376 -22 -86 -15 -242 15 -319
56 -148 204 -296 304 -303 15 -1 27 -5 27 -9 0 -21 67 -30 191 -27 131 3 136
4 212 40 111 53 185 127 243 242 l45 91 -3 156 -3 156 -39 76 c-72 143 -207
251 -346 277 -70 13 -213 11 -275 -4z"/>
<path d="M1535 2309 c-55 -12 -82 -27 -119 -65 -86 -89 -81 -249 13 -338 65
-62 191 -78 281 -36 l46 21 0 95 -1 94 -76 0 c-68 0 -77 -2 -74 -17 2 -10 4
-24 4 -30 1 -8 15 -13 36 -13 35 0 35 0 35 -44 0 -42 -2 -45 -32 -52 -135 -31
-230 62 -204 201 9 45 59 103 100 113 42 12 103 5 129 -13 30 -21 49 -18 69 9
17 24 17 25 -18 45 -54 32 -129 44 -189 30z"/>
<path d="M3132 2305 c-17 -24 -42 -74 -42 -82 0 -5 13 -8 30 -5 27 4 100 69
100 90 0 11 -80 9 -88 -3z"/>
<path d="M2620 2080 l0 -230 109 0 c125 0 179 15 228 62 91 88 88 256 -7 340
-54 48 -91 58 -222 58 l-108 0 0 -230z m257 134 c41 -30 57 -71 57 -140 0 -69
-17 -104 -65 -133 -36 -22 -154 -29 -161 -9 -3 11 -3 294 1 307 1 2 32 1 71
-1 50 -3 77 -9 97 -24z"/>
<path d="M2237 2166 c-38 -14 -65 -39 -68 -63 -1 -7 -2 -19 -3 -25 -4 -26 17
-56 48 -71 17 -8 48 -22 69 -31 30 -13 38 -21 35 -38 -4 -30 -44 -38 -92 -20
-36 14 -40 14 -52 -3 -8 -10 -14 -22 -14 -27 0 -13 58 -38 92 -40 64 -2 78 2
110 30 24 23 31 37 31 65 0 47 -23 72 -87 93 -50 17 -66 28 -66 50 0 14 40 32
60 27 64 -15 77 -14 84 3 8 22 -28 53 -61 54 -12 0 -27 2 -35 5 -7 2 -30 -2
-51 -9z"/>
<path d="M3295 2159 c-61 -23 -68 -31 -51 -54 13 -18 18 -18 50 -7 59 22 76
22 96 2 30 -30 26 -60 -7 -61 -132 -3 -199 -76 -148 -160 23 -38 118 -41 163
-6 9 7 16 5 25 -7 8 -11 23 -17 38 -14 24 3 24 5 25 103 0 55 -5 118 -11 139
-19 72 -93 98 -180 65z m115 -199 c0 -34 -35 -62 -76 -62 -34 0 -48 15 -40 45
6 27 41 45 89 46 24 1 27 -3 27 -29z"/>
<path d="M1815 2046 c2 -100 5 -130 19 -151 34 -51 108 -64 164 -27 22 14 25
14 34 -1 5 -10 21 -17 37 -17 l28 0 0 160 0 160 -38 0 -39 0 0 -118 c0 -115
-1 -119 -24 -132 -30 -16 -74 -16 -89 -1 -7 7 -13 55 -14 124 -1 62 -2 115 -2
120 -1 4 -18 7 -39 7 l-38 0 1 -124z"/>
<path d="M3081 2010 l0 -160 39 0 39 0 0 160 1 160 -40 0 -40 0 1 -160z"/>
<path d="M3547 2163 c-2 -5 -3 -17 -3 -28 1 -18 9 -20 79 -23 l78 -3 -82 -106
c-45 -58 -82 -115 -83 -127 -1 -20 4 -21 125 -24 l127 -3 -2 31 -1 30 -79 0
-78 0 28 38 c16 20 32 42 36 47 62 77 98 132 98 151 0 24 0 24 -119 24 -66 0
-122 -3 -124 -7z"/>
</g>
</svg>
